<svg xmlns="http://www.w3.org/2000/svg" viewBox="2011.862 184.613 40.552 40.61">
  <defs>
    <style>
      .cls-1 {
        fill: #fff;
      }
    </style>
  </defs>
  <g id="Group_19" data-name="Group 19" transform="translate(1990)">
    <g id="Group_11" data-name="Group 11" transform="translate(21.862 184.613)">
      <path id="play-button" class="cls-1" d="M3.769,3.517.193.031A.094.094,0,0,0,.066.02.193.193,0,0,0,0,.174V7.146A.193.193,0,0,0,.066,7.3a.1.1,0,0,0,.057.02.1.1,0,0,0,.07-.031L3.769,3.8a.22.22,0,0,0,0-.287Z" transform="translate(23.849 30.85) rotate(90)"/>
      <path id="play-button-2" data-name="play-button" class="cls-1" d="M3.769,3.517.193.031A.094.094,0,0,0,.066.02.193.193,0,0,0,0,.174V7.146A.193.193,0,0,0,.066,7.3a.1.1,0,0,0,.057.02.1.1,0,0,0,.07-.031L3.769,3.8a.22.22,0,0,0,0-.287Z" transform="translate(16.529 9.748) rotate(-90)"/>
      <rect id="Rectangle_1" data-name="Rectangle 1" class="cls-1" width="2.44" height="40.552" rx="1.22" transform="translate(40.552) rotate(90)"/>
      <rect id="Rectangle_6" data-name="Rectangle 6" class="cls-1" width="2.44" height="40.552" rx="1.22" transform="translate(40.552 38.17) rotate(90)"/>
    </g>
    <rect id="Rectangle_15" data-name="Rectangle 15" class="cls-1" width="14" height="15" rx="1" transform="translate(35 197)"/>
  </g>
</svg>
