<svg xmlns="http://www.w3.org/2000/svg" viewBox="2011.951 249.225 40.611 40.581">
  <defs>
    <style>
      .cls-1 {
        fill: #fff;
      }
    </style>
  </defs>
  <g id="Group_20" data-name="Group 20" transform="translate(1990)">
    <g id="Group_14" data-name="Group 14" transform="translate(21.951 249.225)">
      <g id="Group_13" data-name="Group 13" transform="translate(5.926 16.732)">
        <path id="play-button" class="cls-1" d="M9.269,3.517,5.693.031A.094.094,0,0,0,5.566.02.193.193,0,0,0,5.5.174V7.146a.193.193,0,0,0,.066.154.1.1,0,0,0,.057.02.1.1,0,0,0,.07-.031L9.269,3.8a.22.22,0,0,0,0-.287Z" transform="translate(19.424 0)"/>
        <path id="play-button-2" data-name="play-button" class="cls-1" d="M3.769,3.517.193.031A.094.094,0,0,0,.066.02.193.193,0,0,0,0,.174V7.146A.193.193,0,0,0,.066,7.3a.1.1,0,0,0,.057.02.1.1,0,0,0,.07-.031L3.769,3.8a.22.22,0,0,0,0-.287Z" transform="translate(3.822 7.32) rotate(180)"/>
      </g>
      <rect id="Rectangle_1" data-name="Rectangle 1" class="cls-1" width="2.44" height="40.552" rx="1.22" transform="translate(0 0.029)"/>
      <rect id="Rectangle_6" data-name="Rectangle 6" class="cls-1" width="2.44" height="40.552" rx="1.22" transform="translate(38.17)"/>
    </g>
    <rect id="Rectangle_16" data-name="Rectangle 16" class="cls-1" width="14" height="13" rx="1" transform="translate(35 263)"/>
  </g>
</svg>
