<svg xmlns="http://www.w3.org/2000/svg" viewBox="2012 55 40 295">
  <defs>
    <style>
      .cls-1 {
        fill: #1d788b;
      }
    </style>
  </defs>
  <g id="Group_23" data-name="Group 23" transform="translate(1990)">
    <g id="Group_18" data-name="Group 18" transform="translate(-0.419 -14)">
      <g id="Group_15" data-name="Group 15" transform="translate(22.419 120)">
        <path id="play-button" class="cls-1" d="M3.712,3.464.19.03A.093.093,0,0,0,.065.02.19.19,0,0,0,0,.171V7.038a.19.19,0,0,0,.065.152.1.1,0,0,0,.056.02A.1.1,0,0,0,.19,7.18L3.712,3.746a.216.216,0,0,0,0-.283Z" transform="translate(16.309 32.463) rotate(-90)"/>
        <path id="play-button-2" data-name="play-button" class="cls-1" d="M3.712,3.464.19.03A.093.093,0,0,0,.065.02.19.19,0,0,0,0,.171V7.038a.19.19,0,0,0,.065.152.1.1,0,0,0,.056.02A.1.1,0,0,0,.19,7.18L3.712,3.746a.216.216,0,0,0,0-.283Z" transform="translate(23.519 7.583) rotate(90)"/>
        <g id="Group_8" data-name="Group 8" transform="translate(0 4.149)">
          <rect id="Rectangle_8" data-name="Rectangle 8" class="cls-1" width="2.403" height="31.702" rx="1.202" transform="translate(37.597)"/>
          <rect id="Rectangle_9" data-name="Rectangle 9" class="cls-1" width="2.403" height="31.702" rx="1.202" transform="translate(0)"/>
        </g>
        <g id="Group_9" data-name="Group 9" transform="translate(4.149 40) rotate(-90)">
          <rect id="Rectangle_8-2" data-name="Rectangle 8" class="cls-1" width="2.403" height="31.702" rx="1.202" transform="translate(37.597)"/>
          <rect id="Rectangle_9-2" data-name="Rectangle 9" class="cls-1" width="2.403" height="31.702" rx="1.202"/>
        </g>
        <path id="play-button-3" data-name="play-button" class="cls-1" d="M9.212,3.464,5.69.03A.093.093,0,0,0,5.565.02.19.19,0,0,0,5.5.172V7.038a.19.19,0,0,0,.065.152.1.1,0,0,0,.056.02.1.1,0,0,0,.069-.03L9.212,3.746a.216.216,0,0,0,0-.283Z" transform="translate(1.974 16.418)"/>
        <path id="play-button-4" data-name="play-button" class="cls-1" d="M3.712,3.464.19.03A.093.093,0,0,0,.065.02.19.19,0,0,0,0,.171V7.038a.19.19,0,0,0,.065.152.1.1,0,0,0,.056.02A.1.1,0,0,0,.19,7.18L3.712,3.746a.216.216,0,0,0,0-.283Z" transform="translate(32.354 23.628) rotate(180)"/>
      </g>
      <rect id="Rectangle_13" data-name="Rectangle 13" class="cls-1" width="12.805" height="12.805" rx="1" transform="translate(35.796 133.79)"/>
    </g>
    <g id="Group_21" data-name="Group 21" transform="translate(-0.419 139)">
      <g id="Group_15-2" data-name="Group 15" transform="translate(22.419 120)">
        <g id="Group_8-2" data-name="Group 8" transform="translate(0 4.149)">
          <rect id="Rectangle_8-3" data-name="Rectangle 8" class="cls-1" width="2.403" height="31.702" rx="1.202" transform="translate(37.597)"/>
          <rect id="Rectangle_9-3" data-name="Rectangle 9" class="cls-1" width="2.403" height="31.702" rx="1.202" transform="translate(0)"/>
        </g>
        <g id="Group_9-2" data-name="Group 9" transform="translate(4.149 40) rotate(-90)">
          <rect id="Rectangle_8-4" data-name="Rectangle 8" class="cls-1" width="2.403" height="31.702" rx="1.202" transform="translate(37.597)"/>
          <rect id="Rectangle_9-4" data-name="Rectangle 9" class="cls-1" width="2.403" height="31.702" rx="1.202"/>
        </g>
      </g>
      <rect id="Rectangle_13-2" data-name="Rectangle 13" class="cls-1" width="18.714" height="18.714" rx="1" transform="translate(32.841 130.835)"/>
    </g>
    <g id="Group_22" data-name="Group 22" transform="translate(-0.419 1)">
      <g id="Group_8-3" data-name="Group 8" transform="translate(22.419 313.149)">
        <rect id="Rectangle_8-5" data-name="Rectangle 8" class="cls-1" width="2.403" height="31.702" rx="1.202" transform="translate(37.597)"/>
        <rect id="Rectangle_9-5" data-name="Rectangle 9" class="cls-1" width="2.403" height="31.702" rx="1.202" transform="translate(0)"/>
      </g>
      <g id="Group_9-3" data-name="Group 9" transform="translate(26.568 349) rotate(-90)">
        <rect id="Rectangle_8-6" data-name="Rectangle 8" class="cls-1" width="2.403" height="31.702" rx="1.202" transform="translate(37.597)"/>
        <rect id="Rectangle_9-6" data-name="Rectangle 9" class="cls-1" width="2.403" height="31.702" rx="1.202"/>
      </g>
      <rect id="Rectangle_17" data-name="Rectangle 17" class="cls-1" width="10.835" height="10.835" rx="1" transform="translate(27.916 314.91)"/>
      <rect id="Rectangle_18" data-name="Rectangle 18" class="cls-1" width="10.835" height="10.835" rx="1" transform="translate(46.63 314.91)"/>
      <rect id="Rectangle_19" data-name="Rectangle 19" class="cls-1" width="10.835" height="10.835" rx="1" transform="translate(27.916 332.639)"/>
      <rect id="Rectangle_20" data-name="Rectangle 20" class="cls-1" width="10.835" height="10.835" rx="1" transform="translate(46.63 332.639)"/>
    </g>
    <g id="Group_20" data-name="Group 20" transform="translate(0.049 -92.225)">
      <g id="Group_14" data-name="Group 14" transform="translate(21.951 249.225)">
        <g id="Group_13" data-name="Group 13" transform="translate(5.837 16.493)">
          <path id="play-button-5" data-name="play-button" class="cls-1" d="M9.212,3.466,5.69.03A.093.093,0,0,0,5.565.02.19.19,0,0,0,5.5.172V7.044a.191.191,0,0,0,.065.152.1.1,0,0,0,.056.02.1.1,0,0,0,.069-.03L9.212,3.749a.217.217,0,0,0,0-.283Z" transform="translate(19.049 0)"/>
          <path id="play-button-6" data-name="play-button" class="cls-1" d="M3.712,3.466.19.03A.093.093,0,0,0,.065.02.19.19,0,0,0,0,.172V7.044A.191.191,0,0,0,.065,7.2a.1.1,0,0,0,.056.02.1.1,0,0,0,.069-.03L3.712,3.749a.217.217,0,0,0,0-.283Z" transform="translate(3.765 7.215) rotate(180)"/>
        </g>
        <rect id="Rectangle_1" data-name="Rectangle 1" class="cls-1" width="2.403" height="39.971" rx="1.202" transform="translate(0 0.029)"/>
        <rect id="Rectangle_6" data-name="Rectangle 6" class="cls-1" width="2.403" height="39.971" rx="1.202" transform="translate(37.597)"/>
      </g>
      <rect id="Rectangle_16" data-name="Rectangle 16" class="cls-1" width="13.79" height="12.814" rx="1" transform="translate(34.804 262.803)"/>
    </g>
    <g id="Group_19" data-name="Group 19" transform="translate(0.138 23.387)">
      <g id="Group_11" data-name="Group 11" transform="translate(21.862 184.613)">
        <path id="play-button-7" data-name="play-button" class="cls-1" d="M3.712,3.469.19.03A.093.093,0,0,0,.065.02.19.19,0,0,0,0,.172V7.049A.191.191,0,0,0,.065,7.2a.1.1,0,0,0,.056.02A.1.1,0,0,0,.19,7.19L3.712,3.752a.217.217,0,0,0,0-.283Z" transform="translate(23.524 30.386) rotate(90)"/>
        <path id="play-button-8" data-name="play-button" class="cls-1" d="M3.712,3.469.19.03A.093.093,0,0,0,.065.02.19.19,0,0,0,0,.172V7.049A.191.191,0,0,0,.065,7.2a.1.1,0,0,0,.056.02A.1.1,0,0,0,.19,7.19L3.712,3.752a.217.217,0,0,0,0-.283Z" transform="translate(16.304 9.601) rotate(-90)"/>
        <rect id="Rectangle_1-2" data-name="Rectangle 1" class="cls-1" width="2.403" height="40" rx="1.202" transform="translate(40) rotate(90)"/>
        <rect id="Rectangle_6-2" data-name="Rectangle 6" class="cls-1" width="2.403" height="40" rx="1.202" transform="translate(40 37.597) rotate(90)"/>
      </g>
      <rect id="Rectangle_15" data-name="Rectangle 15" class="cls-1" width="13.81" height="14.775" rx="1" transform="translate(34.821 196.814)"/>
    </g>
    <g id="Group_17" data-name="Group 17" transform="translate(-0.33 -0.387)">
      <g id="Group_12" data-name="Group 12" transform="translate(22.33 55.387)">
        <g id="Group_6" data-name="Group 6" transform="translate(16.309 5.866)">
          <path id="play-button-9" data-name="play-button" class="cls-1" d="M3.712,3.464.19.03A.093.093,0,0,0,.065.02.19.19,0,0,0,0,.171V7.038a.19.19,0,0,0,.065.152.1.1,0,0,0,.056.02A.1.1,0,0,0,.19,7.18L3.712,3.746a.216.216,0,0,0,0-.283Z" transform="translate(7.21 24.549) rotate(90)"/>
          <path id="play-button-10" data-name="play-button" class="cls-1" d="M3.712,3.464.19.03A.093.093,0,0,0,.065.02.19.19,0,0,0,0,.171V7.038a.19.19,0,0,0,.065.152.1.1,0,0,0,.056.02A.1.1,0,0,0,.19,7.18L3.712,3.746a.216.216,0,0,0,0-.283Z" transform="translate(0 3.765) rotate(-90)"/>
        </g>
        <g id="Group_4" data-name="Group 4" transform="translate(0 4.149)">
          <rect id="Rectangle_8-7" data-name="Rectangle 8" class="cls-1" width="2.403" height="31.702" rx="1.202" transform="translate(37.597)"/>
          <rect id="Rectangle_9-7" data-name="Rectangle 9" class="cls-1" width="2.403" height="31.702" rx="1.202"/>
        </g>
        <g id="Group_5" data-name="Group 5" transform="translate(4.149 40) rotate(-90)">
          <rect id="Rectangle_8-8" data-name="Rectangle 8" class="cls-1" width="2.403" height="31.702" rx="1.202" transform="translate(37.597)"/>
          <rect id="Rectangle_9-8" data-name="Rectangle 9" class="cls-1" width="2.403" height="31.702" rx="1.202"/>
        </g>
        <g id="Group_7" data-name="Group 7" transform="translate(34.071 16.418) rotate(90)">
          <path id="play-button-11" data-name="play-button" class="cls-1" d="M3.712,3.464.19.03A.093.093,0,0,0,.065.02.19.19,0,0,0,0,.171V7.038a.19.19,0,0,0,.065.152.1.1,0,0,0,.056.02A.1.1,0,0,0,.19,7.18L3.712,3.746a.216.216,0,0,0,0-.283Z" transform="translate(7.21 24.549) rotate(90)"/>
          <path id="play-button-12" data-name="play-button" class="cls-1" d="M3.712,3.464.19.03A.093.093,0,0,0,.065.02.19.19,0,0,0,0,.171V7.038a.19.19,0,0,0,.065.152.1.1,0,0,0,.056.02A.1.1,0,0,0,.19,7.18L3.712,3.746a.216.216,0,0,0,0-.283Z" transform="translate(0 3.765) rotate(-90)"/>
        </g>
      </g>
      <rect id="Rectangle_14" data-name="Rectangle 14" class="cls-1" width="12.805" height="12.805" rx="1" transform="translate(35.795 68.795)"/>
    </g>
  </g>
</svg>
